<svg width="25" height="25" viewBox="0 0 25 25" fill="none" xmlns="http://www.w3.org/2000/svg">
<g clip-path="url(#clip0_0_41)">
<path d="M12.7066 3.12739C15.8612 3.12739 16.2316 3.14146 17.4784 3.19771C18.6316 3.24927 19.255 3.44146 19.6722 3.60552C20.2253 3.82114 20.6191 4.07427 21.0316 4.48677C21.4441 4.89927 21.7019 5.29302 21.9128 5.84614C22.0722 6.26333 22.2691 6.88677 22.3206 8.03989C22.3769 9.28677 22.3909 9.65708 22.3909 12.8118C22.3909 15.9665 22.3769 16.3368 22.3206 17.5836C22.2691 18.7368 22.0769 19.3602 21.9128 19.7774C21.6972 20.3305 21.4441 20.7243 21.0316 21.1368C20.6191 21.5493 20.2253 21.8071 19.6722 22.018C19.255 22.1774 18.6316 22.3743 17.4784 22.4258C16.2316 22.4821 15.8612 22.4961 12.7066 22.4961C9.55187 22.4961 9.18155 22.4821 7.93468 22.4258C6.78155 22.3743 6.15812 22.1821 5.74093 22.018C5.18781 21.8024 4.79406 21.5493 4.38156 21.1368C3.96906 20.7243 3.71124 20.3305 3.50031 19.7774C3.34093 19.3602 3.14406 18.7368 3.09249 17.5836C3.03624 16.3368 3.02218 15.9665 3.02218 12.8118C3.02218 9.65708 3.03624 9.28677 3.09249 8.03989C3.14406 6.88677 3.33624 6.26333 3.50031 5.84614C3.71593 5.29302 3.96906 4.89927 4.38156 4.48677C4.79406 4.07427 5.18781 3.81646 5.74093 3.60552C6.15812 3.44614 6.78155 3.24927 7.93468 3.19771C9.18155 3.13677 9.55187 3.12739 12.7066 3.12739ZM12.7066 0.999268C9.50031 0.999268 9.09718 1.01333 7.83624 1.06958C6.57999 1.12583 5.72218 1.32739 4.97218 1.61802C4.19406 1.91802 3.53781 2.32583 2.88156 2.98208C2.22531 3.63833 1.82218 4.29927 1.51749 5.07271C1.22687 5.82271 1.02531 6.68052 0.969055 7.94145C0.912805 9.1977 0.898743 9.60083 0.898743 12.8071C0.898743 16.0133 0.912805 16.4165 0.969055 17.6774C1.02531 18.9336 1.22687 19.7915 1.51749 20.5461C1.81749 21.3243 2.22531 21.9805 2.88156 22.6368C3.53781 23.293 4.19874 23.6961 4.97218 24.0008C5.72218 24.2915 6.57999 24.493 7.84093 24.5493C9.10187 24.6055 9.50031 24.6196 12.7112 24.6196C15.9222 24.6196 16.3206 24.6055 17.5816 24.5493C18.8378 24.493 19.6956 24.2915 20.4503 24.0008C21.2284 23.7008 21.8847 23.293 22.5409 22.6368C23.1972 21.9805 23.6003 21.3196 23.905 20.5461C24.1956 19.7961 24.3972 18.9383 24.4534 17.6774C24.5097 16.4165 24.5237 16.018 24.5237 12.8071C24.5237 9.59614 24.5097 9.19771 24.4534 7.93677C24.3972 6.68052 24.1956 5.82271 23.905 5.06802C23.605 4.28989 23.1972 3.63364 22.5409 2.97739C21.8847 2.32114 21.2237 1.91802 20.4503 1.61333C19.7003 1.32271 18.8425 1.12114 17.5816 1.06489C16.3159 1.01333 15.9128 0.999268 12.7066 0.999268Z" fill="#331B3B"/>
<path d="M12.7066 6.74146C9.35968 6.74146 6.64093 9.45552 6.64093 12.8071C6.64093 16.1586 9.35968 18.8727 12.7066 18.8727C16.0534 18.8727 18.7722 16.154 18.7722 12.8071C18.7722 9.4602 16.0534 6.74146 12.7066 6.74146ZM12.7066 16.7446C10.5316 16.7446 8.76906 14.9821 8.76906 12.8071C8.76906 10.6321 10.5316 8.86958 12.7066 8.86958C14.8816 8.86958 16.6441 10.6321 16.6441 12.8071C16.6441 14.9821 14.8816 16.7446 12.7066 16.7446Z" fill="#331B3B"/>
<path d="M19.0113 7.91804C19.7931 7.91804 20.4269 7.28425 20.4269 6.50242C20.4269 5.72059 19.7931 5.08679 19.0113 5.08679C18.2294 5.08679 17.5956 5.72059 17.5956 6.50242C17.5956 7.28425 18.2294 7.91804 19.0113 7.91804Z" fill="#331B3B"/>
</g>
<defs>
<clipPath id="clip0_0_41">
<rect width="24" height="24" fill="white" transform="translate(0.706543 0.807129)"/>
</clipPath>
</defs>
</svg>
